<svg width="142" height="39" viewBox="0 0 142 39" fill="none" xmlns="http://www.w3.org/2000/svg">
<rect width="142" height="39" rx="8" fill="url(#paint0_linear_186_704)"/>
<path d="M39.0341 19.636C39.009 17.1093 41.3227 15.88 41.4285 15.8228C40.1181 14.0957 38.0871 13.8598 37.3734 13.8409C35.6676 13.6787 34.0129 14.7637 33.144 14.7637C32.2577 14.7637 30.9196 13.8566 29.4774 13.8833C27.6216 13.9091 25.8854 14.8805 24.9332 16.3888C22.9681 19.4643 24.4337 23.9838 26.3164 26.4697C27.2582 27.6872 28.3587 29.0466 29.7992 28.9988C31.2084 28.9462 31.7348 28.1866 33.4354 28.1866C35.1204 28.1866 35.6147 28.9988 37.0838 28.9682C38.5962 28.9462 39.5484 27.7452 40.4572 26.5168C41.5456 25.1213 41.9827 23.747 42 23.6765C41.9644 23.6655 39.0627 22.6644 39.0341 19.636Z" fill="#141416"/>
<path d="M36.259 12.2056C37.017 11.3487 37.5356 10.183 37.3916 9C36.2946 9.0439 34.9227 9.68596 34.1326 10.524C33.4336 11.2625 32.8093 12.4729 32.9706 13.6112C34.2029 13.6943 35.4681 13.0491 36.259 12.2056Z" fill="#141416"/>
<path d="M55.164 10.9876C55.164 11.9147 54.8606 12.6127 54.2546 13.0814C53.6933 13.5139 52.8957 13.7305 51.8626 13.7305C51.3503 13.7305 50.9119 13.71 50.5449 13.669V8.6031C51.0237 8.53221 51.5394 8.49597 52.0963 8.49597C53.0805 8.49597 53.8223 8.69212 54.3225 9.08441C54.8829 9.52791 55.164 10.162 55.164 10.9876ZM54.2142 11.0104C54.2142 10.4094 54.0406 9.94856 53.6933 9.62716C53.3461 9.30655 52.839 9.14585 52.1711 9.14585C51.8875 9.14585 51.646 9.16318 51.4457 9.19942V13.0507C51.5566 13.0664 51.7594 13.0735 52.0542 13.0735C52.7436 13.0735 53.2756 12.8978 53.6504 12.5465C54.0251 12.1952 54.2142 11.6832 54.2142 11.0104Z" fill="#141416"/>
<path d="M60.1989 11.7971C60.1989 12.3682 60.0209 12.8361 59.6651 13.2032C59.2921 13.5805 58.7978 13.7688 58.1807 13.7688C57.5859 13.7688 57.1123 13.5884 56.7591 13.2261C56.4067 12.8645 56.2305 12.4084 56.2305 11.8585C56.2305 11.2835 56.4118 10.8116 56.7763 10.4453C57.1407 10.0791 57.6306 9.89551 58.2478 9.89551C58.8425 9.89551 59.3204 10.0759 59.6823 10.4375C60.0261 10.7888 60.1989 11.2425 60.1989 11.7971ZM59.2646 11.8239C59.2646 11.4812 59.1838 11.1874 59.023 10.9424C58.8339 10.6462 58.5649 10.4981 58.2151 10.4981C57.8532 10.4981 57.5782 10.6462 57.3891 10.9424C57.2275 11.1874 57.1476 11.4859 57.1476 11.8389C57.1476 12.1815 57.2284 12.4753 57.3891 12.7203C57.5842 13.0165 57.8558 13.1646 58.2065 13.1646C58.5503 13.1646 58.8202 13.0142 59.0144 12.7125C59.1812 12.4627 59.2646 12.1666 59.2646 11.8239Z" fill="#141416"/>
<path d="M66.9525 9.97168L65.6847 13.6851H64.8596L64.3344 12.0726C64.2012 11.67 64.0929 11.2699 64.0087 10.8728H63.9923C63.9141 11.2809 63.8058 11.6803 63.6666 12.0726L63.1088 13.6851H62.2742L61.082 9.97168H62.0077L62.4658 11.737C62.5767 12.1545 62.6678 12.5523 62.7409 12.9288H62.7572C62.8243 12.6185 62.9351 12.223 63.0916 11.7449L63.6666 9.97247H64.4006L64.9516 11.7071C65.0848 12.1301 65.1931 12.5373 65.2765 12.9296H65.3014C65.3624 12.5476 65.4544 12.1403 65.5764 11.7071L66.0681 9.97247H66.9525V9.97168Z" fill="#141416"/>
<path d="M71.6218 13.6849H70.7211V11.558C70.7211 10.9026 70.4494 10.5749 69.9045 10.5749C69.6372 10.5749 69.4215 10.6647 69.2539 10.8451C69.088 11.0255 69.0037 11.2382 69.0037 11.4816V13.6841H68.103V11.0326C68.103 10.7065 68.0918 10.3528 68.0703 9.96997H68.8619L68.904 10.5505H68.929C69.0338 10.3701 69.1903 10.2213 69.3957 10.1023C69.6398 9.96366 69.9131 9.89355 70.2122 9.89355C70.5904 9.89355 70.905 10.0054 71.1551 10.2299C71.4662 10.5048 71.6218 10.9152 71.6218 11.4604V13.6849Z" fill="#141416"/>
<path d="M74.105 13.6848H73.2051V8.26758H74.105V13.6848Z" fill="#141416"/>
<path d="M79.4098 11.7971C79.4098 12.3682 79.2319 12.8361 78.876 13.2032C78.503 13.5805 78.0079 13.7688 77.3917 13.7688C76.796 13.7688 76.3224 13.5884 75.97 13.2261C75.6176 12.8645 75.4414 12.4084 75.4414 11.8585C75.4414 11.2835 75.6228 10.8116 75.9872 10.4453C76.3516 10.0791 76.8416 9.89551 77.4578 9.89551C78.0535 9.89551 78.5305 10.0759 78.8932 10.4375C79.237 10.7888 79.4098 11.2425 79.4098 11.7971ZM78.4746 11.8239C78.4746 11.4812 78.3938 11.1874 78.2331 10.9424C78.0449 10.6462 77.775 10.4981 77.426 10.4981C77.0633 10.4981 76.7883 10.6462 76.6 10.9424C76.4384 11.1874 76.3585 11.4859 76.3585 11.8389C76.3585 12.1815 76.4393 12.4753 76.6 12.7203C76.7951 13.0165 77.0668 13.1646 77.4174 13.1646C77.7612 13.1646 78.0303 13.0142 78.2245 12.7125C78.3921 12.4627 78.4746 12.1666 78.4746 11.8239Z" fill="#141416"/>
<path d="M83.7677 13.6845H82.9589L82.8919 13.2568H82.867C82.5902 13.5979 82.1957 13.7688 81.6834 13.7688C81.3009 13.7688 80.9915 13.6562 80.7586 13.4324C80.5471 13.2292 80.4414 12.9763 80.4414 12.6762C80.4414 12.2225 80.6477 11.8767 81.0628 11.6372C81.4771 11.3977 82.0599 11.2803 82.8102 11.2859V11.2165C82.8102 10.7274 82.53 10.4832 81.9688 10.4832C81.5691 10.4832 81.2167 10.5753 80.9124 10.7581L80.7293 10.2161C81.1058 10.0026 81.5708 9.89551 82.1192 9.89551C83.1781 9.89551 83.7093 10.4075 83.7093 11.4316V12.7991C83.7093 13.1701 83.729 13.4655 83.7677 13.6845ZM82.8326 12.4084V11.8357C81.839 11.8199 81.3422 12.0697 81.3422 12.5841C81.3422 12.7778 81.3989 12.9228 81.5149 13.0197C81.631 13.1166 81.7788 13.1646 81.955 13.1646C82.1527 13.1646 82.3375 13.1071 82.506 12.9929C82.6753 12.8779 82.7793 12.7321 82.818 12.5533C82.8274 12.5132 82.8326 12.4643 82.8326 12.4084Z" fill="#141416"/>
<path d="M88.8873 13.6848H88.088L88.0459 13.0885H88.021C87.7657 13.5423 87.3308 13.7691 86.7196 13.7691C86.2314 13.7691 85.8249 13.5935 85.5026 13.2421C85.1803 12.8908 85.0195 12.4347 85.0195 11.8746C85.0195 11.2736 85.194 10.7868 85.5447 10.4149C85.8842 10.0683 86.3002 9.89504 86.7953 9.89504C87.3394 9.89504 87.7201 10.0628 87.9367 10.3992H87.9539V8.26758H88.8555V12.6844C88.8555 13.046 88.8659 13.3792 88.8873 13.6848ZM87.9539 12.1188V11.4997C87.9539 11.3925 87.9453 11.3059 87.929 11.2397C87.8783 11.0412 87.7691 10.8742 87.6032 10.7395C87.4356 10.6048 87.2336 10.537 87.0007 10.537C86.6646 10.537 86.4016 10.6591 86.2082 10.9041C86.0166 11.1491 85.9194 11.4618 85.9194 11.8439C85.9194 12.211 86.0114 12.5087 86.1962 12.738C86.3913 12.9822 86.6543 13.1043 86.9835 13.1043C87.2792 13.1043 87.5156 13.0027 87.6952 12.7986C87.8688 12.6104 87.9539 12.3835 87.9539 12.1188Z" fill="#141416"/>
<path d="M96.5914 11.7971C96.5914 12.3682 96.4135 12.8361 96.0577 13.2032C95.6846 13.5805 95.1913 13.7688 94.5733 13.7688C93.9794 13.7688 93.5058 13.5884 93.1517 13.2261C92.7993 12.8645 92.623 12.4084 92.623 11.8585C92.623 11.2835 92.8044 10.8116 93.1688 10.4453C93.5333 10.0791 94.0232 9.89551 94.6412 9.89551C95.2351 9.89551 95.7139 10.0759 96.0749 10.4375C96.4187 10.7888 96.5914 11.2425 96.5914 11.7971ZM95.658 11.8239C95.658 11.4812 95.5772 11.1874 95.4165 10.9424C95.2265 10.6462 94.9584 10.4981 94.6077 10.4981C94.2467 10.4981 93.9716 10.6462 93.7817 10.9424C93.6201 11.1874 93.5401 11.4859 93.5401 11.8389C93.5401 12.1815 93.6209 12.4753 93.7817 12.7203C93.9768 13.0165 94.2484 13.1646 94.5991 13.1646C94.9429 13.1646 95.2136 13.0142 95.4079 12.7125C95.5738 12.4627 95.658 12.1666 95.658 11.8239Z" fill="#141416"/>
<path d="M101.433 13.6849H100.534V11.558C100.534 10.9026 100.262 10.5749 99.7162 10.5749C99.4488 10.5749 99.2331 10.6647 99.0664 10.8451C98.8996 11.0255 98.8162 11.2382 98.8162 11.4816V13.6841H97.9146V11.0326C97.9146 10.7065 97.9043 10.3528 97.8828 9.96997H98.6736L98.7157 10.5505H98.7406C98.8463 10.3701 99.0028 10.2213 99.2073 10.1023C99.4523 9.96366 99.7248 9.89355 100.025 9.89355C100.402 9.89355 100.717 10.0054 100.967 10.2299C101.279 10.5048 101.433 10.9152 101.433 11.4604V13.6849Z" fill="#141416"/>
<path d="M107.497 10.59H106.505V12.394C106.505 12.8524 106.681 13.0817 107.03 13.0817C107.192 13.0817 107.326 13.0691 107.432 13.0431L107.455 13.6693C107.277 13.7308 107.043 13.7615 106.755 13.7615C106.399 13.7615 106.123 13.6622 105.922 13.4637C105.721 13.2652 105.621 12.9312 105.621 12.4625V10.59H105.029V9.97168H105.621V9.29107L106.504 9.04688V9.97089H107.496V10.59H107.497Z" fill="#141416"/>
<path d="M112.265 13.6848H111.363V11.5737C111.363 10.9081 111.092 10.5749 110.548 10.5749C110.13 10.5749 109.845 10.7679 109.688 11.1538C109.661 11.235 109.646 11.3342 109.646 11.4508V13.6841H108.746V8.26758H109.646V10.5055H109.663C109.947 10.0983 110.353 9.89504 110.88 9.89504C111.253 9.89504 111.562 10.0069 111.807 10.2314C112.112 10.5111 112.265 10.927 112.265 11.4768V13.6848Z" fill="#141416"/>
<path d="M117.184 11.6524C117.184 11.8005 117.172 11.925 117.151 12.0266H114.449C114.461 12.3937 114.59 12.6733 114.84 12.8671C115.069 13.0404 115.364 13.1271 115.725 13.1271C116.124 13.1271 116.489 13.0688 116.817 12.9514L116.958 13.5249C116.574 13.6777 116.122 13.7541 115.598 13.7541C114.971 13.7541 114.477 13.5847 114.119 13.246C113.76 12.9073 113.582 12.4528 113.582 11.8824C113.582 11.3224 113.748 10.856 114.082 10.4842C114.431 10.0872 114.903 9.88867 115.499 9.88867C116.082 9.88867 116.524 10.0872 116.823 10.4842C117.065 10.7993 117.184 11.1892 117.184 11.6524ZM116.325 11.4389C116.332 11.1939 116.272 10.9828 116.15 10.8048C115.994 10.5756 115.756 10.4606 115.433 10.4606C115.139 10.4606 114.9 10.5724 114.717 10.7969C114.567 10.9757 114.479 11.1892 114.449 11.4389H116.325Z" fill="#141416"/>
<path d="M59.1137 27.9197H57.1617L56.0925 24.8404H52.3759L51.3574 27.9197H49.457L53.1392 17.4365H55.4135L59.1137 27.9197ZM55.7702 23.5485L54.8032 20.8111C54.7009 20.5315 54.5093 19.8729 54.2265 18.8363H54.1921C54.0795 19.2821 53.8981 19.9407 53.6489 20.8111L52.6991 23.5485H55.7702Z" fill="#141416"/>
<path d="M68.5834 24.0478C68.5834 25.3334 68.2044 26.3495 67.4463 27.0955C66.7673 27.7596 65.9241 28.0912 64.9176 28.0912C63.8311 28.0912 63.0507 27.7336 62.5754 27.0183H62.541V31.0003H60.7085V22.8496C60.7085 22.0414 60.6853 21.2119 60.6406 20.3612H62.2522L62.3545 21.5593H62.3889C63 20.6566 63.9274 20.206 65.172 20.206C66.145 20.206 66.9572 20.5581 67.607 21.2631C68.2585 21.9689 68.5834 22.8969 68.5834 24.0478ZM66.7165 24.1092C66.7165 23.3735 66.536 22.7669 66.1733 22.2896C65.7771 21.7917 65.245 21.5428 64.5781 21.5428C64.126 21.5428 63.7151 21.6814 63.3481 21.9548C62.9802 22.2305 62.7396 22.5905 62.627 23.0363C62.5702 23.2443 62.5419 23.4144 62.5419 23.5484V24.8087C62.5419 25.3586 62.7258 25.8226 63.0937 26.2015C63.4616 26.5804 63.9394 26.7694 64.5274 26.7694C65.2175 26.7694 65.7547 26.5252 66.1389 26.0384C66.524 25.5508 66.7165 24.908 66.7165 24.1092Z" fill="#141416"/>
<path d="M78.0689 24.0478C78.0689 25.3334 77.6898 26.3495 76.9309 27.0955C76.2527 27.7596 75.4095 28.0912 74.403 28.0912C73.3166 28.0912 72.5362 27.7336 72.0617 27.0183H72.0273V31.0003H70.1949V22.8496C70.1949 22.0414 70.1716 21.2119 70.127 20.3612H71.7385L71.8408 21.5593H71.8752C72.4855 20.6566 73.4129 20.206 74.6583 20.206C75.6304 20.206 76.4427 20.5581 77.0942 21.2631C77.7431 21.9689 78.0689 22.8969 78.0689 24.0478ZM76.202 24.1092C76.202 23.3735 76.0206 22.7669 75.6579 22.2896C75.2617 21.7917 74.7314 21.5428 74.0635 21.5428C73.6106 21.5428 73.2006 21.6814 72.8327 21.9548C72.4648 22.2305 72.225 22.5905 72.1124 23.0363C72.0566 23.2443 72.0273 23.4144 72.0273 23.5484V24.8087C72.0273 25.3586 72.2113 25.8226 72.5774 26.2015C72.9453 26.5796 73.4232 26.7694 74.0128 26.7694C74.703 26.7694 75.2402 26.5252 75.6244 26.0384C76.0095 25.5508 76.202 24.908 76.202 24.1092Z" fill="#141416"/>
<path d="M88.6762 24.9801C88.6762 25.8718 88.3385 26.5973 87.6603 27.1574C86.9151 27.7695 85.8777 28.0751 84.5446 28.0751C83.3137 28.0751 82.327 27.8577 81.5801 27.4221L82.0047 26.0223C82.8092 26.4681 83.6919 26.6919 84.6537 26.6919C85.3439 26.6919 85.8811 26.5485 86.267 26.2633C86.6512 25.9782 86.8429 25.5953 86.8429 25.118C86.8429 24.6926 86.6847 24.3342 86.3676 24.0435C86.0521 23.7528 85.5253 23.4826 84.7895 23.2329C82.7868 22.5484 81.7864 21.5456 81.7864 20.2269C81.7864 19.3651 82.137 18.6585 82.8393 18.1087C83.5389 17.5581 84.4723 17.2831 85.6396 17.2831C86.6804 17.2831 87.5451 17.4494 88.2353 17.781L87.7772 19.1501C87.1325 18.8287 86.4037 18.668 85.588 18.668C84.9434 18.668 84.4397 18.8137 84.0787 19.1036C83.7736 19.3628 83.6206 19.6786 83.6206 20.0528C83.6206 20.4672 83.795 20.8098 84.1457 21.0792C84.4509 21.3282 85.0053 21.5976 85.8098 21.8882C86.7939 22.2514 87.5168 22.676 87.9818 23.1628C88.445 23.648 88.6762 24.2554 88.6762 24.9801Z" fill="#141416"/>
<path d="M94.7339 21.6213H92.7141V25.2914C92.7141 26.2249 93.0699 26.6912 93.7833 26.6912C94.1108 26.6912 94.3824 26.6652 94.5973 26.6132L94.648 27.8886C94.287 28.0122 93.8117 28.0745 93.2229 28.0745C92.4992 28.0745 91.9336 27.872 91.5254 27.4679C91.1188 27.063 90.9143 26.384 90.9143 25.43V21.6198H89.7109V20.3594H90.9143V18.9753L92.7141 18.4775V20.3594H94.7339V21.6213Z" fill="#141416"/>
<path d="M103.848 24.0777C103.848 25.2396 103.485 26.1936 102.762 26.9396C102.003 27.7076 100.995 28.0904 99.7396 28.0904C98.5294 28.0904 97.5659 27.7226 96.8474 26.9868C96.1288 26.2511 95.7695 25.3223 95.7695 24.203C95.7695 23.0316 96.1391 22.0721 96.8809 21.3262C97.6209 20.5794 98.6197 20.206 99.8754 20.206C101.086 20.206 102.059 20.5739 102.794 21.3104C103.497 22.0249 103.848 22.9473 103.848 24.0777ZM101.947 24.1321C101.947 23.4349 101.784 22.837 101.455 22.3384C101.071 21.735 100.522 21.4341 99.8101 21.4341C99.0735 21.4341 98.514 21.7358 98.1298 22.3384C97.8006 22.8378 97.6381 23.4452 97.6381 24.1636C97.6381 24.8607 97.8006 25.4586 98.1298 25.9565C98.526 26.5599 99.0795 26.8608 99.7938 26.8608C100.493 26.8608 101.043 26.5536 101.439 25.9407C101.777 25.4326 101.947 24.8284 101.947 24.1321Z" fill="#141416"/>
<path d="M109.803 21.8382C109.622 21.8075 109.429 21.7917 109.226 21.7917C108.581 21.7917 108.083 22.0146 107.732 22.4613C107.427 22.8551 107.274 23.353 107.274 23.954V27.9203H105.442L105.459 22.7417C105.459 21.8705 105.436 21.0772 105.391 20.362H106.987L107.054 21.8082H107.105C107.298 21.3112 107.603 20.911 108.021 20.6109C108.429 20.3407 108.87 20.206 109.345 20.206C109.515 20.206 109.668 20.217 109.803 20.2367V21.8382Z" fill="#141416"/>
<path d="M118 23.7827C118 24.0836 117.979 24.3373 117.933 24.5444H112.436C112.457 25.2912 112.723 25.8623 113.233 26.2562C113.697 26.6083 114.296 26.7848 115.031 26.7848C115.845 26.7848 116.588 26.6658 117.256 26.4271L117.543 27.593C116.762 27.9049 115.841 28.0601 114.778 28.0601C113.499 28.0601 112.495 27.7151 111.764 27.0258C111.035 26.3365 110.67 25.4109 110.67 24.2498C110.67 23.11 111.01 22.1607 111.69 21.4037C112.401 20.5955 113.363 20.1914 114.573 20.1914C115.762 20.1914 116.662 20.5955 117.273 21.4037C117.757 22.0457 118 22.8398 118 23.7827ZM116.253 23.3471C116.265 22.8492 116.145 22.4191 115.897 22.056C115.58 21.5888 115.092 21.3557 114.437 21.3557C113.837 21.3557 113.35 21.5833 112.978 22.0402C112.673 22.4034 112.491 22.839 112.436 23.3463H116.253V23.3471Z" fill="#141416"/>
<defs>
<linearGradient id="paint0_linear_186_704" x1="0" y1="19.5" x2="142" y2="19.5" gradientUnits="userSpaceOnUse">
<stop stop-color="#3772FF"/>
<stop offset="1" stop-color="#9757D7"/>
</linearGradient>
</defs>
</svg>
