<svg width="142" height="39" viewBox="0 0 142 39" fill="none" xmlns="http://www.w3.org/2000/svg">
<rect width="142" height="39" rx="8" fill="url(#paint0_linear_186_731)"/>
<path d="M71.391 20.5814C69.4746 20.5814 67.9126 22.0935 67.9126 24.1761C67.9126 26.246 69.4746 27.7708 71.391 27.7708C73.3083 27.7708 74.8703 26.246 74.8703 24.1761C74.8695 22.0935 73.3075 20.5814 71.391 20.5814ZM71.391 26.3559C70.3408 26.3559 69.4355 25.4574 69.4355 24.1769C69.4355 22.8829 70.3416 21.998 71.391 21.998C72.4413 21.998 73.3466 22.8829 73.3466 24.1769C73.3466 25.4566 72.4413 26.3559 71.391 26.3559ZM63.8019 20.5814C61.8854 20.5814 60.3234 22.0935 60.3234 24.1761C60.3234 26.246 61.8854 27.7708 63.8019 27.7708C65.7191 27.7708 67.2811 26.246 67.2811 24.1761C67.2811 22.0935 65.7191 20.5814 63.8019 20.5814ZM63.8019 26.3559C62.7516 26.3559 61.8463 25.4574 61.8463 24.1769C61.8463 22.8829 62.7524 21.998 63.8019 21.998C64.8522 21.998 65.7574 22.8829 65.7574 24.1769C65.7582 25.4566 64.8522 26.3559 63.8019 26.3559ZM54.7753 21.6852V23.21H58.2937C58.1886 24.0679 57.9132 24.6942 57.4927 25.1295C56.981 25.6603 56.1801 26.246 54.7753 26.246C52.6096 26.246 50.9164 24.4347 50.9164 22.1881C50.9164 19.9415 52.6096 18.1302 54.7753 18.1302C55.9438 18.1302 56.7969 18.6069 57.4268 19.2197L58.464 18.1438C57.584 17.2723 56.4164 16.6055 54.7753 16.6055C51.8086 16.6055 49.3145 19.1107 49.3145 22.1881C49.3145 25.2656 51.8086 27.7708 54.7753 27.7708C56.3765 27.7708 57.5848 27.2256 58.5292 26.2046C59.5005 25.1971 59.8028 23.7805 59.8028 22.6369C59.8028 22.2836 59.7767 21.9565 59.7237 21.6844L54.7753 21.6852ZM91.693 22.8694C91.4045 22.0664 90.5245 20.5814 88.7262 20.5814C86.941 20.5814 85.4572 22.0385 85.4572 24.1761C85.4572 26.1911 86.9279 27.7708 88.8965 27.7708C90.4846 27.7708 91.4037 26.7633 91.785 26.1776L90.6036 25.3602C90.21 25.9595 89.6714 26.3542 88.8965 26.3542C88.1225 26.3542 87.5708 25.9865 87.2164 25.2647L91.8502 23.2768L91.693 22.8694ZM86.967 24.0679C86.9279 22.6784 88.0043 21.9709 88.7792 21.9709C89.383 21.9709 89.8947 22.2845 90.0658 22.7333L86.967 24.0679ZM83.2002 27.5536H84.7222V16.9875H83.2002V27.5536ZM80.7052 21.3852H80.653C80.3116 20.9626 79.6549 20.5814 78.8287 20.5814C77.0956 20.5814 75.5075 22.1611 75.5075 24.1905C75.5075 26.2055 77.0956 27.7716 78.8287 27.7716C79.6557 27.7716 80.3116 27.3904 80.653 26.9552H80.7052V27.4724C80.7052 28.8476 79.9963 29.5829 78.8547 29.5829C77.9226 29.5829 77.3449 28.889 77.1086 28.3033L75.7829 28.8755C76.1634 29.8281 77.1738 30.9995 78.8547 30.9995C80.64 30.9995 82.1499 29.91 82.1499 27.2544V20.8003H80.706L80.7052 21.3852ZM78.9599 26.3559C77.9096 26.3559 77.0304 25.4431 77.0304 24.1905C77.0304 22.9235 77.9096 21.998 78.9599 21.998C79.9963 21.998 80.8103 22.9235 80.8103 24.1905C80.8103 25.4431 79.9963 26.3559 78.9599 26.3559ZM98.8259 16.9875H95.1828V27.5536H96.7025V23.5506H98.8251C100.51 23.5506 102.167 22.2853 102.167 20.2695C102.167 18.2536 100.511 16.9875 98.8259 16.9875ZM98.865 22.0799H96.7025V18.4582H98.865C100.002 18.4582 100.647 19.4344 100.647 20.2695C100.647 21.0877 100.002 22.0799 98.865 22.0799ZM108.261 20.5628C107.161 20.5628 106.021 21.0657 105.549 22.1805L106.898 22.7646C107.187 22.1805 107.724 21.9895 108.287 21.9895C109.074 21.9895 109.873 22.4789 109.886 23.3486V23.4576C109.611 23.2945 109.021 23.0503 108.301 23.0503C106.846 23.0503 105.365 23.8794 105.365 25.4287C105.365 26.8427 106.558 27.753 107.894 27.753C108.916 27.753 109.48 27.2772 109.833 26.7193H109.885V27.535H111.354V23.4839C111.354 21.6092 110.003 20.5628 108.261 20.5628ZM108.077 26.3534C107.58 26.3534 106.885 26.0947 106.885 25.4557C106.885 24.6401 107.751 24.3274 108.498 24.3274C109.165 24.3274 109.48 24.477 109.886 24.6807C109.768 25.6603 108.956 26.3534 108.077 26.3534ZM116.7 20.7935L114.958 25.3746H114.905L113.097 20.7935H111.459L114.171 27.196L112.625 30.7578H114.21L118.391 20.7935H116.7ZM103.007 27.5536H104.526V16.9875H103.007V27.5536Z" fill="#141416"/>
<path d="M54.5091 10.8551C54.5091 11.5634 54.307 12.1272 53.902 12.5481C53.4425 13.0484 52.8428 13.2986 52.1062 13.2986C51.4006 13.2986 50.8 13.0451 50.3071 12.5379C49.8133 12.03 49.5664 11.4011 49.5664 10.6506C49.5664 9.89916 49.8133 9.27032 50.3071 8.76319C50.8 8.25522 51.4006 8.00165 52.1062 8.00165C52.4566 8.00165 52.7914 8.07265 53.1092 8.2138C53.4278 8.3558 53.6828 8.54428 53.8735 8.7801L53.4441 9.22637C53.1206 8.82489 52.6749 8.62458 52.1054 8.62458C51.5904 8.62458 51.1455 8.81222 50.7699 9.18749C50.3943 9.56277 50.2069 10.0505 50.2069 10.6497C50.2069 11.249 50.3943 11.7367 50.7699 12.1119C51.1455 12.4872 51.5904 12.6749 52.1054 12.6749C52.6513 12.6749 53.1068 12.4864 53.471 12.1086C53.7073 11.8626 53.8442 11.5203 53.8808 11.0816H52.1054V10.4722H54.474C54.4985 10.6049 54.5091 10.7325 54.5091 10.8551Z" fill="#141416"/>
<path d="M58.2654 8.73704H56.0394V10.3446H58.0471V10.954H56.0394V12.5616H58.2654V13.1854H55.4112V8.11411H58.2654V8.73704Z" fill="#141416"/>
<path d="M60.9143 13.1854H60.2861V8.73704H58.9205V8.11411H62.2799V8.73704H60.9143V13.1854Z" fill="#141416"/>
<path d="M64.7105 13.1854V8.11411H65.3387V13.1854H64.7105Z" fill="#141416"/>
<path d="M68.1247 13.1854H67.4965V8.73704H66.1309V8.11411H69.4903V8.73704H68.1247V13.1854Z" fill="#141416"/>
<path d="M75.8498 12.5304C75.369 13.0426 74.7718 13.2987 74.0572 13.2987C73.3426 13.2987 72.7453 13.0426 72.2654 12.5304C71.7847 12.0182 71.5451 11.391 71.5451 10.6498C71.5451 9.9085 71.7847 9.28135 72.2654 8.76915C72.7453 8.25695 73.3426 8 74.0572 8C74.7677 8 75.3642 8.25779 75.8465 8.77253C76.3289 9.28727 76.5701 9.91273 76.5701 10.6498C76.5701 11.391 76.3297 12.0182 75.8498 12.5304ZM72.729 12.1052C73.0908 12.4856 73.5333 12.6749 74.0572 12.6749C74.5811 12.6749 75.0244 12.4847 75.3853 12.1052C75.7471 11.7249 75.9288 11.2397 75.9288 10.6498C75.9288 10.0598 75.7471 9.57464 75.3853 9.19429C75.0244 8.81394 74.5811 8.62462 74.0572 8.62462C73.5333 8.62462 73.0908 8.81479 72.729 9.19429C72.3681 9.57464 72.1864 10.0598 72.1864 10.6498C72.1864 11.2397 72.3681 11.7249 72.729 12.1052Z" fill="#141416"/>
<path d="M77.4517 13.1854V8.11411H78.216L80.592 12.0587H80.6189L80.592 11.0817V8.11411H81.2202V13.1854H80.5643L78.0783 9.04892H78.0514L78.0783 10.026V13.1854H77.4517Z" fill="#141416"/>
<path d="M54.5091 10.8551C54.5091 11.5634 54.307 12.1272 53.902 12.5481C53.4425 13.0484 52.8428 13.2986 52.1062 13.2986C51.4006 13.2986 50.8 13.0451 50.3071 12.5379C49.8133 12.03 49.5664 11.4011 49.5664 10.6506C49.5664 9.89916 49.8133 9.27032 50.3071 8.76319C50.8 8.25522 51.4006 8.00165 52.1062 8.00165C52.4566 8.00165 52.7914 8.07265 53.1092 8.2138C53.4278 8.3558 53.6828 8.54428 53.8735 8.7801L53.4441 9.22637C53.1206 8.82489 52.6749 8.62458 52.1054 8.62458C51.5904 8.62458 51.1455 8.81222 50.7699 9.18749C50.3943 9.56277 50.2069 10.0505 50.2069 10.6497C50.2069 11.249 50.3943 11.7367 50.7699 12.1119C51.1455 12.4872 51.5904 12.6749 52.1054 12.6749C52.6513 12.6749 53.1068 12.4864 53.471 12.1086C53.7073 11.8626 53.8442 11.5203 53.8808 11.0816H52.1054V10.4722H54.474C54.4985 10.6049 54.5091 10.7325 54.5091 10.8551Z" stroke="#141416" stroke-width="0.162963" stroke-miterlimit="10"/>
<path d="M58.2654 8.73704H56.0394V10.3446H58.0471V10.954H56.0394V12.5616H58.2654V13.1854H55.4112V8.11411H58.2654V8.73704Z" stroke="#141416" stroke-width="0.162963" stroke-miterlimit="10"/>
<path d="M60.9143 13.1854H60.2861V8.73704H58.9205V8.11411H62.2799V8.73704H60.9143V13.1854Z" stroke="#141416" stroke-width="0.162963" stroke-miterlimit="10"/>
<path d="M64.7105 13.1854V8.11411H65.3387V13.1854H64.7105Z" stroke="#141416" stroke-width="0.162963" stroke-miterlimit="10"/>
<path d="M68.1247 13.1854H67.4965V8.73704H66.1309V8.11411H69.4903V8.73704H68.1247V13.1854Z" stroke="#141416" stroke-width="0.162963" stroke-miterlimit="10"/>
<path d="M75.8498 12.5304C75.369 13.0426 74.7718 13.2987 74.0572 13.2987C73.3426 13.2987 72.7453 13.0426 72.2654 12.5304C71.7847 12.0182 71.5451 11.391 71.5451 10.6498C71.5451 9.9085 71.7847 9.28135 72.2654 8.76915C72.7453 8.25695 73.3426 8 74.0572 8C74.7677 8 75.3642 8.25779 75.8465 8.77253C76.3289 9.28727 76.5701 9.91273 76.5701 10.6498C76.5701 11.391 76.3297 12.0182 75.8498 12.5304ZM72.729 12.1052C73.0908 12.4856 73.5333 12.6749 74.0572 12.6749C74.5811 12.6749 75.0244 12.4847 75.3853 12.1052C75.7471 11.7249 75.9288 11.2397 75.9288 10.6498C75.9288 10.0598 75.7471 9.57464 75.3853 9.19429C75.0244 8.81394 74.5811 8.62462 74.0572 8.62462C73.5333 8.62462 73.0908 8.81479 72.729 9.19429C72.3681 9.57464 72.1864 10.0598 72.1864 10.6498C72.1864 11.2397 72.3681 11.7249 72.729 12.1052Z" stroke="#141416" stroke-width="0.162963" stroke-miterlimit="10"/>
<path d="M77.4517 13.1854V8.11411H78.216L80.592 12.0587H80.6189L80.592 11.0817V8.11411H81.2202V13.1854H80.5643L78.0783 9.04892H78.0514L78.0783 10.026V13.1854H77.4517Z" stroke="#141416" stroke-width="0.162963" stroke-miterlimit="10"/>
<path d="M24.3772 9.85242C24.1383 10.078 24 10.4293 24 10.8842V27.1101C24 27.565 24.1383 27.9163 24.3772 28.1419L24.4361 28.1914L34.5145 19.1026V18.888L24.4361 9.79923L24.3772 9.85242Z" fill="#141416"/>
<path d="M39.0901 22.1338L35.7344 19.1027V18.8881L39.0942 15.8569L39.1694 15.8964L43.1483 17.9388C44.2838 18.5185 44.2838 19.4723 43.1483 20.0556L39.1694 22.0944L39.0901 22.1338Z" fill="#141416"/>
<path d="M38.5587 22.6587L35.1237 19.5597L24.9863 28.7063C25.3635 29.064 25.9785 29.1071 26.6779 28.7494L38.5587 22.6587Z" fill="#141416"/>
<path d="M38.5587 15.3327L26.6779 9.24198C25.9785 8.88796 25.3635 8.93107 24.9863 9.28875L35.1237 18.4316L38.5587 15.3327Z" fill="#141416"/>
<defs>
<linearGradient id="paint0_linear_186_731" x1="0" y1="19.5" x2="142" y2="19.5" gradientUnits="userSpaceOnUse">
<stop stop-color="#3772FF"/>
<stop offset="1" stop-color="#9757D7"/>
</linearGradient>
</defs>
</svg>
