<svg width="36" height="36" viewBox="0 0 36 36" fill="none" xmlns="http://www.w3.org/2000/svg">
<mask id="mask0_70_1385" style="mask-type:alpha" maskUnits="userSpaceOnUse" x="0" y="0" width="36" height="36">
<rect width="36" height="36" fill="#D9D9D9"/>
</mask>
<g mask="url(#mask0_70_1385)">
<path d="M16.3869 19.7625L13.6494 16.9125C13.4244 16.6625 13.1494 16.5375 12.8244 16.5375C12.4994 16.5375 12.2119 16.65 11.9619 16.875C11.7119 17.125 11.5869 17.4125 11.5869 17.7375C11.5869 18.0625 11.7119 18.35 11.9619 18.6L15.5994 22.2C15.8244 22.425 16.0869 22.5375 16.3869 22.5375C16.6869 22.5375 16.9494 22.425 17.1744 22.2L24.0369 15.375C24.2619 15.15 24.3744 14.875 24.3744 14.55C24.3744 14.225 24.2494 13.95 23.9994 13.725C23.7744 13.525 23.5057 13.4313 23.1932 13.4438C22.8807 13.4563 22.6244 13.5625 22.4244 13.7625L16.3869 19.7625ZM12.4494 32.85L10.1244 28.875L5.47441 27.9375C5.19941 27.8875 4.96816 27.7375 4.78066 27.4875C4.59316 27.2375 4.52441 26.975 4.57441 26.7L5.09941 22.2L2.13691 18.75C1.93691 18.55 1.83691 18.3 1.83691 18C1.83691 17.7 1.93691 17.45 2.13691 17.25L5.09941 13.8375L4.57441 9.33751C4.52441 9.06251 4.59316 8.80001 4.78066 8.55001C4.96816 8.30001 5.19941 8.15001 5.47441 8.10001L10.1244 7.16251L12.4494 3.15001C12.5994 2.90001 12.8119 2.72501 13.0869 2.62501C13.3619 2.52501 13.6369 2.53751 13.9119 2.66251L17.9994 4.57501L22.0869 2.66251C22.3619 2.53751 22.6369 2.51876 22.9119 2.60626C23.1869 2.69376 23.3994 2.86251 23.5494 3.11251L25.9119 7.16251L30.5244 8.10001C30.7994 8.15001 31.0307 8.30001 31.2182 8.55001C31.4057 8.80001 31.4744 9.06251 31.4244 9.33751L30.8994 13.8375L33.8619 17.25C34.0619 17.45 34.1619 17.7 34.1619 18C34.1619 18.3 34.0619 18.55 33.8619 18.75L30.8994 22.2L31.4244 26.7C31.4744 26.975 31.4057 27.2375 31.2182 27.4875C31.0307 27.7375 30.7994 27.8875 30.5244 27.9375L25.9119 28.875L23.5494 32.8875C23.3994 33.1375 23.1869 33.3063 22.9119 33.3938C22.6369 33.4813 22.3619 33.4625 22.0869 33.3375L17.9994 31.425L13.9119 33.3375C13.6369 33.4625 13.3619 33.475 13.0869 33.375C12.8119 33.275 12.5994 33.1 12.4494 32.85Z" fill="url(#paint0_linear_70_1385)" fill-opacity="0.8"/>
</g>
<defs>
<linearGradient id="paint0_linear_70_1385" x1="3.90821" y1="-13.1812" x2="38.9387" y2="27.7809" gradientUnits="userSpaceOnUse">
<stop stop-color="#FFB800"/>
<stop offset="1" stop-color="#FF844F"/>
</linearGradient>
</defs>
</svg>
