<svg width="48" height="48" viewBox="0 0 48 48" fill="none" xmlns="http://www.w3.org/2000/svg">
<mask id="mask0_70_1557" style="mask-type:alpha" maskUnits="userSpaceOnUse" x="0" y="0" width="48" height="48">
<rect width="48" height="48" fill="#D9D9D9"/>
</mask>
<g mask="url(#mask0_70_1557)">
<mask id="mask1_70_1557" style="mask-type:alpha" maskUnits="userSpaceOnUse" x="0" y="0" width="49" height="48">
<rect x="0.5" width="48" height="48" fill="#D9D9D9"/>
</mask>
<g mask="url(#mask1_70_1557)">
<path d="M26.1025 45.9998C23.3692 45.9998 20.8025 45.3748 18.4025 44.1248C16.0025 42.8748 14.0358 41.1332 12.5025 38.8998L3.65249 25.8998C3.41916 25.5665 3.32749 25.2082 3.37749 24.8248C3.42749 24.4415 3.58583 24.1165 3.85249 23.8498C4.51916 23.1498 5.34416 22.7498 6.32749 22.6498C7.31083 22.5498 8.20249 22.7831 9.00249 23.3498L14.5025 27.1498V7.99982C14.5025 7.43315 14.6942 6.95815 15.0775 6.57482C15.4608 6.19148 15.9358 5.99982 16.5025 5.99982C17.0692 5.99982 17.5442 6.19148 17.9275 6.57482C18.3108 6.95815 18.5025 7.43315 18.5025 7.99982V23.9998H22.5025V3.99982C22.5025 3.43315 22.6942 2.95815 23.0775 2.57482C23.4608 2.19148 23.9358 1.99982 24.5025 1.99982C25.0692 1.99982 25.5442 2.19148 25.9275 2.57482C26.3108 2.95815 26.5025 3.43315 26.5025 3.99982V23.9998H30.5025V5.99982C30.5025 5.43315 30.6942 4.95815 31.0775 4.57482C31.4608 4.19148 31.9358 3.99982 32.5025 3.99982C33.0692 3.99982 33.5442 4.19148 33.9275 4.57482C34.3108 4.95815 34.5025 5.43315 34.5025 5.99982V23.9998H38.5025V9.99982C38.5025 9.43315 38.6942 8.95815 39.0775 8.57482C39.4608 8.19148 39.9358 7.99982 40.5025 7.99982C41.0692 7.99982 41.5442 8.19148 41.9275 8.57482C42.3108 8.95815 42.5025 9.43315 42.5025 9.99982V29.5998C42.5025 34.1665 40.9108 38.0415 37.7275 41.2248C34.5442 44.4082 30.6692 45.9998 26.1025 45.9998Z" fill="#23262F"/>
</g>
</g>
</svg>
