<svg width="48" height="49" viewBox="0 0 48 49" fill="none" xmlns="http://www.w3.org/2000/svg">
<mask id="mask0_70_1321" style="mask-type:alpha" maskUnits="userSpaceOnUse" x="0" y="0" width="48" height="49">
<rect y="0.5" width="48" height="48" fill="#D9D9D9"/>
</mask>
<g mask="url(#mask0_70_1321)">
<path d="M41.9982 32.5V20.7L25.8982 29.45C25.2982 29.7834 24.6649 29.95 23.9982 29.95C23.3316 29.95 22.6982 29.7834 22.0982 29.45L5.19824 20.25C4.83158 20.05 4.57324 19.8 4.42324 19.5C4.27324 19.2 4.19824 18.8667 4.19824 18.5C4.19824 18.1334 4.27324 17.8 4.42324 17.5C4.57324 17.2 4.83158 16.95 5.19824 16.75L22.0982 7.55005C22.3982 7.38338 22.7066 7.25838 23.0232 7.17505C23.3399 7.09172 23.6649 7.05005 23.9982 7.05005C24.3316 7.05005 24.6566 7.09172 24.9732 7.17505C25.2899 7.25838 25.5982 7.38338 25.8982 7.55005L44.9482 17.95C45.2816 18.1167 45.5399 18.3584 45.7232 18.675C45.9066 18.9917 45.9982 19.3334 45.9982 19.7V32.5C45.9982 33.0667 45.8066 33.5417 45.4232 33.925C45.0399 34.3084 44.5649 34.5 43.9982 34.5C43.4316 34.5 42.9566 34.3084 42.5732 33.925C42.1899 33.5417 41.9982 33.0667 41.9982 32.5ZM22.0982 41.4501L12.0982 36.05C11.4316 35.6834 10.9149 35.1834 10.5482 34.55C10.1816 33.9167 9.99824 33.2334 9.99824 32.5V24.9L22.0982 31.45C22.6982 31.7834 23.3316 31.95 23.9982 31.95C24.6649 31.95 25.2982 31.7834 25.8982 31.45L37.9982 24.9V32.5C37.9982 33.2334 37.8149 33.9167 37.4482 34.55C37.0816 35.1834 36.5649 35.6834 35.8982 36.05L25.8982 41.4501C25.5982 41.6167 25.2899 41.7417 24.9732 41.8251C24.6566 41.9084 24.3316 41.9501 23.9982 41.9501C23.6649 41.9501 23.3399 41.9084 23.0232 41.8251C22.7066 41.7417 22.3982 41.6167 22.0982 41.4501Z" fill="#23262F"/>
</g>
</svg>
