<svg width="36" height="36" viewBox="0 0 36 36" fill="none" xmlns="http://www.w3.org/2000/svg">
<mask id="mask0_70_1406" style="mask-type:alpha" maskUnits="userSpaceOnUse" x="0" y="0" width="36" height="36">
<rect width="36" height="36" fill="#D9D9D9"/>
</mask>
<g mask="url(#mask0_70_1406)">
<path d="M17.9974 30.7125C18.4741 30.7125 18.9375 30.6875 19.3875 30.6375C19.8375 30.5875 20.275 30.5092 20.7 30.4027L18.7875 27.525H13.2375V25.9376C13.2375 25.0644 13.5478 24.3169 14.1683 23.6951C14.7888 23.0734 15.5347 22.7625 16.4062 22.7625H19.575V18H16.425C16 18 15.625 17.8375 15.3 17.5125C14.975 17.1875 14.8125 16.8125 14.8125 16.3875V13.2H14.1068C13.4272 13.2 12.8438 12.9688 12.3563 12.5063C11.8688 12.0437 11.625 11.4689 11.625 10.7816C11.625 10.5439 11.6625 10.3063 11.7375 10.0688C11.8125 9.83125 11.9125 9.6125 12.0375 9.4125L14.5125 5.775C11.8375 6.525 9.63125 8.018 7.89375 10.254C6.15625 12.49 5.2875 15.072 5.2875 18H6.8625V16.3875C6.8625 15.9625 7.01875 15.5938 7.33125 15.2812C7.64375 14.9688 8.0125 14.8125 8.4375 14.8125H11.625C12.05 14.8125 12.425 14.9688 12.75 15.2812C13.075 15.5938 13.2375 15.9625 13.2375 16.3875V18C13.2375 18.425 13.075 18.7938 12.75 19.1063C12.425 19.4188 12.05 19.575 11.625 19.575V21.1777C11.625 22.0592 11.3136 22.8062 10.6909 23.4188C10.0684 24.0312 9.31988 24.3375 8.44538 24.3375H6.975C8.1 26.2625 9.62912 27.8062 11.5624 28.9688C13.4956 30.1313 15.6406 30.7125 17.9974 30.7125ZM30.075 21.9C30.275 21.275 30.4313 20.6383 30.5438 19.9897C30.6563 19.3412 30.7125 18.6729 30.7125 17.9846C30.7125 15.0199 29.8129 12.404 28.0136 10.137C26.2146 7.87 23.9392 6.3785 21.1875 5.6625V10.032C22.0625 10.032 22.8115 10.3431 23.4345 10.9654C24.0578 11.5876 24.3694 12.3358 24.3694 13.2098V16.3875C24.8731 16.3875 25.3313 16.4563 25.7438 16.5938C26.1562 16.7312 26.5375 16.975 26.8875 17.325L30.075 21.9ZM18.0101 33C15.9416 33 13.9979 32.6062 12.1789 31.8187C10.3596 31.0312 8.76875 29.9562 7.40625 28.5938C6.04375 27.2313 4.96875 25.6395 4.18125 23.8185C3.39375 21.9975 3 20.0518 3 17.9813C3 15.9108 3.39375 13.965 4.18125 12.144C4.96875 10.323 6.04375 8.7375 7.40625 7.3875C8.76875 6.0375 10.3605 4.96875 12.1815 4.18125C14.0025 3.39375 15.9482 3 18.0187 3C20.0893 3 22.035 3.39375 23.856 4.18125C25.677 4.96875 27.2625 6.0375 28.6125 7.3875C29.9625 8.7375 31.0312 10.325 31.8187 12.15C32.6062 13.975 33 15.9216 33 17.9899C33 20.0584 32.6062 22.0021 31.8187 23.8211C31.0312 25.6404 29.9625 27.229 28.6125 28.587C27.2625 29.9448 25.675 31.0198 23.85 31.812C22.025 32.604 20.0784 33 18.0101 33Z" fill="url(#paint0_linear_70_1406)" fill-opacity="0.8"/>
</g>
<defs>
<linearGradient id="paint0_linear_70_1406" x1="4.92232" y1="-12.2774" x2="39.1426" y2="25.9679" gradientUnits="userSpaceOnUse">
<stop stop-color="#FFB800"/>
<stop offset="1" stop-color="#FF844F"/>
</linearGradient>
</defs>
</svg>
