<svg width="36" height="36" viewBox="0 0 36 36" fill="none" xmlns="http://www.w3.org/2000/svg">
<mask id="mask0_70_1392" style="mask-type:alpha" maskUnits="userSpaceOnUse" x="0" y="0" width="36" height="36">
<rect width="36" height="36" fill="#D9D9D9"/>
</mask>
<g mask="url(#mask0_70_1392)">
<path d="M1.57471 30.375V28.05C1.57471 27.2 1.77471 26.4938 2.17471 25.9313C2.57471 25.3688 3.13721 24.9125 3.86221 24.5625C5.21221 23.9125 6.65596 23.375 8.19346 22.95C9.73096 22.525 11.4747 22.3125 13.4247 22.3125C15.3747 22.3125 17.1185 22.525 18.656 22.95C20.1935 23.375 21.6372 23.9125 22.9872 24.5625C23.7122 24.9125 24.2747 25.3688 24.6747 25.9313C25.0747 26.4938 25.2747 27.2 25.2747 28.05V30.375C25.2747 30.7 25.1685 30.9688 24.956 31.1813C24.7435 31.3938 24.4747 31.5 24.1497 31.5H2.69971C2.37471 31.5 2.10596 31.3938 1.89346 31.1813C1.68096 30.9688 1.57471 30.7 1.57471 30.375ZM13.4247 20.0625C11.7747 20.0625 10.4247 19.525 9.37471 18.45C8.32471 17.375 7.79971 16.0375 7.79971 14.4375H7.42471C7.22471 14.4375 7.04971 14.3625 6.89971 14.2125C6.74971 14.0625 6.67471 13.8875 6.67471 13.6875C6.67471 13.4875 6.74971 13.3125 6.89971 13.1625C7.04971 13.0125 7.22471 12.9375 7.42471 12.9375H7.79971C7.79971 11.9375 8.04971 11.0375 8.54971 10.2375C9.04971 9.4375 9.69971 8.7875 10.4997 8.2875V9.75C10.4997 9.9 10.556 10.0312 10.6685 10.1438C10.781 10.2562 10.9122 10.3125 11.0622 10.3125C11.2372 10.3125 11.3747 10.2562 11.4747 10.1438C11.5747 10.0312 11.6247 9.9 11.6247 9.75V7.8C11.8247 7.75 12.0997 7.70625 12.4497 7.66875C12.7997 7.63125 13.1372 7.6125 13.4622 7.6125C13.7872 7.6125 14.1247 7.63125 14.4747 7.66875C14.8247 7.70625 15.0997 7.75 15.2997 7.8V9.75C15.2997 9.9 15.3497 10.0312 15.4497 10.1438C15.5497 10.2562 15.6872 10.3125 15.8622 10.3125C16.0122 10.3125 16.1435 10.2562 16.256 10.1438C16.3685 10.0312 16.4247 9.9 16.4247 9.75V8.2875C17.2247 8.7875 17.8622 9.4375 18.3372 10.2375C18.8122 11.0375 19.0497 11.9375 19.0497 12.9375H19.4247C19.6247 12.9375 19.7997 13.0125 19.9497 13.1625C20.0997 13.3125 20.1747 13.4875 20.1747 13.6875C20.1747 13.8875 20.0997 14.0625 19.9497 14.2125C19.7997 14.3625 19.6247 14.4375 19.4247 14.4375H19.0497C19.0497 16.0375 18.5247 17.375 17.4747 18.45C16.4247 19.525 15.0747 20.0625 13.4247 20.0625ZM13.4247 17.8125C14.4747 17.8125 15.2997 17.5 15.8997 16.875C16.4997 16.25 16.7997 15.4375 16.7997 14.4375H10.0497C10.0497 15.4375 10.3497 16.25 10.9497 16.875C11.5497 17.5 12.3747 17.8125 13.4247 17.8125ZM24.7122 21.75L24.6747 21.375C24.4997 21.275 24.3185 21.1625 24.131 21.0375C23.9435 20.9125 23.7747 20.7875 23.6247 20.6625L23.2122 20.8875C23.0372 20.9875 22.8685 21.0125 22.706 20.9625C22.5435 20.9125 22.3997 20.8125 22.2747 20.6625L22.2372 20.5875C22.1122 20.4125 22.0685 20.2313 22.106 20.0438C22.1435 19.8563 22.2372 19.7 22.3872 19.575L22.7997 19.275C22.7497 19.175 22.7247 19.0813 22.7247 18.9938V18.4313C22.7247 18.3438 22.7497 18.25 22.7997 18.15L22.3872 17.85C22.2372 17.725 22.1435 17.575 22.106 17.4C22.0685 17.225 22.1122 17.05 22.2372 16.875L22.2747 16.7625C22.3997 16.6125 22.5435 16.5125 22.706 16.4625C22.8685 16.4125 23.0372 16.4375 23.2122 16.5375L23.6247 16.7625L24.1497 16.3875C24.3247 16.2625 24.4997 16.15 24.6747 16.05L24.7122 15.6375C24.7372 15.4375 24.8185 15.275 24.956 15.15C25.0935 15.025 25.2622 14.9625 25.4622 14.9625H25.5372C25.7372 14.9625 25.906 15.0312 26.0435 15.1688C26.181 15.3063 26.2622 15.475 26.2872 15.675L26.3247 16.05C26.4997 16.15 26.6747 16.2625 26.8497 16.3875L27.3747 16.7625L27.7872 16.5375C27.9622 16.4375 28.131 16.4125 28.2935 16.4625C28.456 16.5125 28.5997 16.6125 28.7247 16.7625L28.7622 16.8375C28.8872 17.0125 28.931 17.1938 28.8935 17.3813C28.856 17.5688 28.7622 17.725 28.6122 17.85L28.1997 18.15C28.2497 18.25 28.2747 18.3438 28.2747 18.4313V18.9938C28.2747 19.0813 28.2497 19.175 28.1997 19.275L28.6122 19.575C28.7622 19.7 28.856 19.85 28.8935 20.025C28.931 20.2 28.8872 20.375 28.7622 20.55L28.7247 20.6625C28.5997 20.8125 28.456 20.9125 28.2935 20.9625C28.131 21.0125 27.9622 20.9875 27.7872 20.8875L27.3747 20.6625C27.2247 20.7875 27.056 20.9125 26.8685 21.0375C26.681 21.1625 26.4997 21.275 26.3247 21.375L26.2872 21.7875C26.2622 21.9875 26.181 22.15 26.0435 22.275C25.906 22.4 25.7372 22.4625 25.5372 22.4625H25.4622C25.2622 22.4625 25.0935 22.3938 24.956 22.2563C24.8185 22.1188 24.7372 21.95 24.7122 21.75ZM25.4997 20.1375C25.8997 20.1375 26.2372 20 26.5122 19.725C26.7872 19.45 26.9247 19.1125 26.9247 18.7125C26.9247 18.3125 26.7872 17.975 26.5122 17.7C26.2372 17.425 25.8997 17.2875 25.4997 17.2875C25.0997 17.2875 24.7622 17.425 24.4872 17.7C24.2122 17.975 24.0747 18.3125 24.0747 18.7125C24.0747 19.1125 24.2122 19.45 24.4872 19.725C24.7622 20 25.0997 20.1375 25.4997 20.1375ZM28.6497 13.8L28.4622 13.0125C28.2122 12.9125 27.956 12.775 27.6935 12.6C27.431 12.425 27.2122 12.2375 27.0372 12.0375L25.9872 12.4125C25.8122 12.4625 25.6435 12.4625 25.481 12.4125C25.3185 12.3625 25.1872 12.2625 25.0872 12.1125L24.9372 11.8875C24.8372 11.7125 24.806 11.5375 24.8435 11.3625C24.881 11.1875 24.9747 11.0375 25.1247 10.9125L25.9497 10.275C25.8997 10.15 25.856 10.0125 25.8185 9.8625C25.781 9.7125 25.7622 9.5625 25.7622 9.4125C25.7622 9.2625 25.781 9.1125 25.8185 8.9625C25.856 8.8125 25.8997 8.675 25.9497 8.55L25.1247 7.9125C24.9747 7.7875 24.881 7.63125 24.8435 7.44375C24.806 7.25625 24.8372 7.0875 24.9372 6.9375L25.0872 6.75C25.1872 6.6 25.3185 6.49375 25.481 6.43125C25.6435 6.36875 25.8122 6.3625 25.9872 6.4125L27.0372 6.7875C27.2122 6.5875 27.431 6.39375 27.6935 6.20625C27.956 6.01875 28.2122 5.8875 28.4622 5.8125L28.6497 5.025C28.6997 4.875 28.7872 4.75 28.9122 4.65C29.0372 4.55 29.1747 4.5 29.3247 4.5H29.6997C29.8497 4.5 29.9872 4.55 30.1122 4.65C30.2372 4.75 30.3247 4.875 30.3747 5.025L30.5622 5.8125C30.8122 5.8875 31.0685 6.01875 31.331 6.20625C31.5935 6.39375 31.8122 6.5875 31.9872 6.7875L33.0372 6.4125C33.2122 6.3625 33.381 6.3625 33.5435 6.4125C33.706 6.4625 33.8372 6.5625 33.9372 6.7125L34.0872 6.9375C34.1872 7.1125 34.2185 7.2875 34.181 7.4625C34.1435 7.6375 34.0497 7.7875 33.8997 7.9125L33.0747 8.55C33.1247 8.675 33.1685 8.8125 33.206 8.9625C33.2435 9.1125 33.2622 9.2625 33.2622 9.4125C33.2622 9.5625 33.2435 9.7125 33.206 9.8625C33.1685 10.0125 33.1247 10.15 33.0747 10.275L33.8997 10.9125C34.0497 11.0375 34.1435 11.1938 34.181 11.3813C34.2185 11.5688 34.1872 11.7375 34.0872 11.8875L33.9372 12.075C33.8372 12.225 33.706 12.3313 33.5435 12.3938C33.381 12.4563 33.2122 12.4625 33.0372 12.4125L31.9872 12.0375C31.8122 12.2375 31.5935 12.425 31.331 12.6C31.0685 12.775 30.8122 12.9125 30.5622 13.0125L30.3747 13.8C30.3247 13.95 30.2372 14.075 30.1122 14.175C29.9872 14.275 29.8497 14.325 29.6997 14.325H29.3247C29.1747 14.325 29.0372 14.275 28.9122 14.175C28.7872 14.075 28.6997 13.95 28.6497 13.8ZM29.5122 11.5875C30.1372 11.5875 30.656 11.3812 31.0685 10.9688C31.481 10.5563 31.6872 10.0375 31.6872 9.4125C31.6872 8.7875 31.481 8.26875 31.0685 7.85625C30.656 7.44375 30.1372 7.2375 29.5122 7.2375C28.8872 7.2375 28.3685 7.44375 27.956 7.85625C27.5435 8.26875 27.3372 8.7875 27.3372 9.4125C27.3372 10.0375 27.5435 10.5563 27.956 10.9688C28.3685 11.3812 28.8872 11.5875 29.5122 11.5875Z" fill="url(#paint0_linear_70_1392)" fill-opacity="0.8"/>
</g>
<defs>
<linearGradient id="paint0_linear_70_1392" x1="3.66501" y1="-9.24962" x2="33.3069" y2="30.7763" gradientUnits="userSpaceOnUse">
<stop stop-color="#FFB800"/>
<stop offset="1" stop-color="#FF844F"/>
</linearGradient>
</defs>
</svg>
