<svg width="36" height="36" viewBox="0 0 36 36" fill="none" xmlns="http://www.w3.org/2000/svg">
<mask id="mask0_70_1399" style="mask-type:alpha" maskUnits="userSpaceOnUse" x="0" y="0" width="36" height="36">
<rect width="36" height="36" fill="#D9D9D9"/>
</mask>
<g mask="url(#mask0_70_1399)">
<path d="M20.5875 34.0125C20.7875 34.0625 21 34.0875 21.225 34.0875C21.45 34.0875 21.6625 34.0625 21.8625 34.0125L33 30.6C33 29.25 32.6188 28.2438 31.8563 27.5813C31.0938 26.9188 30 26.5875 28.575 26.5875H22.0125C20.8875 26.5875 20.0187 26.5312 19.4062 26.4188C18.7938 26.3062 18.2875 26.1875 17.8875 26.0625L15.6 25.275C15.45 25.225 15.3438 25.1313 15.2812 24.9938C15.2188 24.8563 15.2125 24.7125 15.2625 24.5625C15.3125 24.4125 15.4062 24.3063 15.5438 24.2438C15.6813 24.1812 15.825 24.175 15.975 24.225L18.1875 24.9375C18.7875 25.1375 19.3375 25.275 19.8375 25.35C20.3375 25.425 20.9125 25.4625 21.5625 25.4625H24.3C24.5 25.4625 24.6625 25.4 24.7875 25.275C24.9125 25.15 24.975 24.9875 24.975 24.7875C24.975 24.2125 24.775 23.6437 24.375 23.0812C23.975 22.5187 23.4 22.1 22.65 21.825L13.4625 18.375C13.3375 18.325 13.2063 18.2875 13.0688 18.2625C12.9313 18.2375 12.8 18.225 12.675 18.225H9.5625V30.8625L20.5875 34.0125ZM1.5 30.75C1.5 31.375 1.71875 31.9062 2.15625 32.3438C2.59375 32.7812 3.125 33 3.75 33H5.025C5.65 33 6.18125 32.7812 6.61875 32.3438C7.05625 31.9062 7.275 31.375 7.275 30.75V20.475C7.275 19.85 7.05625 19.3188 6.61875 18.8813C6.18125 18.4438 5.65 18.225 5.025 18.225H3.75C3.125 18.225 2.59375 18.4438 2.15625 18.8813C1.71875 19.3188 1.5 19.85 1.5 20.475V30.75ZM24.225 18C23.95 18 23.675 17.9437 23.4 17.8312C23.125 17.7188 22.875 17.5625 22.65 17.3625L18.075 12.9C17.325 12.175 16.7 11.3688 16.2 10.4813C15.7 9.59375 15.45 8.625 15.45 7.575C15.45 6.3 15.8938 5.21875 16.7812 4.33125C17.6688 3.44375 18.75 3 20.025 3C20.875 3 21.65 3.21875 22.35 3.65625C23.05 4.09375 23.675 4.6375 24.225 5.2875C24.775 4.6375 25.4 4.09375 26.1 3.65625C26.8 3.21875 27.575 3 28.425 3C29.7 3 30.7813 3.44375 31.6688 4.33125C32.5563 5.21875 33 6.3 33 7.575C33 8.625 32.75 9.59375 32.25 10.4813C31.75 11.3688 31.125 12.175 30.375 12.9L25.8 17.3625C25.575 17.5625 25.325 17.7188 25.05 17.8312C24.775 17.9437 24.5 18 24.225 18Z" fill="url(#paint0_linear_70_1399)" fill-opacity="0.8"/>
</g>
<defs>
<linearGradient id="paint0_linear_70_1399" x1="3.51843" y1="-12.8312" x2="38.9244" y2="27.2643" gradientUnits="userSpaceOnUse">
<stop stop-color="#FFB800"/>
<stop offset="1" stop-color="#FF844F"/>
</linearGradient>
</defs>
</svg>
