<svg width="151" height="32" viewBox="0 0 151 32" fill="none" xmlns="http://www.w3.org/2000/svg">
<path fill-rule="evenodd" clip-rule="evenodd" d="M13.7971 0.687536C15.4824 -0.229179 17.5175 -0.229179 19.2028 0.687536L28.973 6.00205C30.7935 6.99226 31.9267 8.89867 31.9267 10.971V21.029C31.9267 23.1013 30.7935 25.0077 28.973 25.998L19.2028 31.3125C17.5175 32.2292 15.4824 32.2292 13.7971 31.3125L4.02687 25.998C2.20645 25.0077 1.07324 23.1013 1.07324 21.029L1.07324 10.971C1.07324 8.89867 2.20645 6.99226 4.02686 6.00205L13.7971 0.687536Z" fill="#F4F5F6"/>
<path d="M14.036 1.12676C15.5724 0.291079 17.4275 0.291079 18.9639 1.12676L28.7341 6.44127C30.3936 7.34396 31.4267 9.08185 31.4267 10.971V21.029C31.4267 22.9182 30.3936 24.656 28.7341 25.5587L18.9639 30.8732C17.4275 31.7089 15.5724 31.7089 14.036 30.8732L4.26578 25.5587C2.60628 24.656 1.57324 22.9182 1.57324 21.029V10.971C1.57324 9.08185 2.60628 7.34396 4.26578 6.44127L14.036 1.12676Z" stroke="url(#paint0_linear_96_822)"/>
<mask id="mask0_96_822" style="mask-type:alpha" maskUnits="userSpaceOnUse" x="6" y="7" width="20" height="19">
<rect x="6.5" y="7" width="19" height="19" fill="#D9D9D9"/>
</mask>
<g mask="url(#mask0_96_822)">
<path d="M16.6334 25.2083C15.5514 25.2083 14.5354 24.9609 13.5854 24.4661C12.6354 23.9713 11.857 23.2819 11.25 22.3979L7.74691 17.252C7.65454 17.1201 7.61826 16.9783 7.63805 16.8265C7.65784 16.6748 7.72052 16.5461 7.82607 16.4406C8.08996 16.1635 8.41652 16.0052 8.80576 15.9656C9.195 15.926 9.54795 16.0184 9.86461 16.2427L12.0417 17.7468V10.1666C12.0417 9.94232 12.1176 9.7543 12.2693 9.60256C12.421 9.45083 12.6091 9.37496 12.8334 9.37496C13.0577 9.37496 13.2457 9.45083 13.3974 9.60256C13.5492 9.7543 13.625 9.94232 13.625 10.1666V16.5H15.2084V8.58329C15.2084 8.35899 15.2842 8.17097 15.436 8.01923C15.5877 7.86749 15.7757 7.79163 16 7.79163C16.2243 7.79163 16.4124 7.86749 16.5641 8.01923C16.7158 8.17097 16.7917 8.35899 16.7917 8.58329V16.5H18.375V9.37496C18.375 9.15065 18.4509 8.96263 18.6026 8.8109C18.7544 8.65916 18.9424 8.58329 19.1667 8.58329C19.391 8.58329 19.579 8.65916 19.7308 8.8109C19.8825 8.96263 19.9584 9.15065 19.9584 9.37496V16.5H21.5417V10.9583C21.5417 10.734 21.6176 10.546 21.7693 10.3942C21.921 10.2425 22.1091 10.1666 22.3334 10.1666C22.5577 10.1666 22.7457 10.2425 22.8974 10.3942C23.0492 10.546 23.125 10.734 23.125 10.9583V18.7166C23.125 20.5243 22.495 22.0581 21.2349 23.3182C19.9749 24.5783 18.441 25.2083 16.6334 25.2083Z" fill="url(#paint1_linear_96_822)"/>
</g>
<path d="M57.324 5.72L54.3 23H49.956L51.06 16.76H46.38L45.3 23H40.956L44.004 5.72H48.324L47.028 13.016H51.708L53.004 5.72H57.324ZM68.5384 19.304C68.5384 19.72 68.7464 19.928 69.1624 19.928C69.5944 19.928 69.9544 19.848 70.2424 19.688L70.1224 22.4C69.3544 23.024 68.4904 23.336 67.5304 23.336C65.7704 23.336 64.7944 22.696 64.6024 21.416C63.8024 22.696 62.6264 23.336 61.0744 23.336C58.4504 23.336 57.1384 22.208 57.1384 19.952C57.1384 19.568 57.1784 19.144 57.2584 18.68L57.7624 15.872C58.0184 14.432 58.6024 13.288 59.5144 12.44C60.4424 11.576 61.6424 11.144 63.1144 11.144C64.6024 11.144 65.6104 11.488 66.1384 12.176L66.2584 11.456H69.9064L68.5624 19.016C68.5464 19.112 68.5384 19.208 68.5384 19.304ZM61.4344 18.152C61.4024 18.296 61.3864 18.496 61.3864 18.752C61.3864 19.008 61.5064 19.264 61.7464 19.52C61.9864 19.76 62.3864 19.88 62.9464 19.88C63.5224 19.88 64.0184 19.656 64.4344 19.208L65.1544 15.176C64.9784 14.776 64.5624 14.576 63.9064 14.576C62.6744 14.576 61.9544 15.168 61.7464 16.352L61.4344 18.152ZM78.9679 15.632C78.9679 14.944 78.6319 14.6 77.9599 14.6C77.3039 14.6 76.7599 14.848 76.3279 15.344L74.9839 23H70.9039L72.9439 11.456H76.7359L76.4719 12.872C77.4159 11.704 78.6079 11.12 80.0479 11.12C81.4879 11.12 82.4239 11.472 82.8559 12.176C83.1279 12.624 83.2639 13.136 83.2639 13.712C83.2639 14.288 83.2239 14.824 83.1439 15.32L82.4959 19.016C82.4799 19.112 82.4719 19.2 82.4719 19.28C82.4719 19.712 82.7119 19.928 83.1919 19.928C83.5599 19.928 83.8879 19.848 84.1759 19.688L84.0559 22.4C83.3039 23.024 82.4479 23.336 81.4879 23.336C79.3119 23.336 78.2239 22.424 78.2239 20.6C78.2239 20.28 78.2559 19.936 78.3199 19.568L78.8959 16.376C78.9439 16.088 78.9679 15.84 78.9679 15.632ZM96.3596 19.304C96.3596 19.72 96.5676 19.928 96.9836 19.928C97.4156 19.928 97.7756 19.848 98.0636 19.688L97.9436 22.4C97.1756 23.024 96.3116 23.336 95.3516 23.336C93.5916 23.336 92.6156 22.696 92.4236 21.416C91.6236 22.696 90.4476 23.336 88.8956 23.336C86.2716 23.336 84.9596 22.208 84.9596 19.952C84.9596 19.568 84.9996 19.144 85.0796 18.68L85.5836 15.872C85.8396 14.432 86.4236 13.288 87.3356 12.44C88.2636 11.576 89.5436 11.144 91.1756 11.144C92.1836 11.144 92.9836 11.36 93.5756 11.792L94.7996 4.784H98.9036L96.3836 19.016C96.3676 19.112 96.3596 19.208 96.3596 19.304ZM89.2556 18.152C89.2236 18.296 89.2076 18.496 89.2076 18.752C89.2076 19.008 89.3276 19.264 89.5676 19.52C89.8076 19.76 90.2076 19.88 90.7676 19.88C91.3436 19.88 91.8396 19.656 92.2556 19.208L92.9756 15.176C92.7996 14.776 92.3836 14.576 91.7276 14.576C90.4956 14.576 89.7756 15.168 89.5676 16.352L89.2556 18.152ZM115.826 5.72L112.802 23H108.458L109.562 16.76H104.882L103.802 23H99.4579L102.506 5.72H106.826L105.53 13.016H110.21L111.506 5.72H115.826ZM122.96 11.12C124.688 11.12 125.992 11.496 126.872 12.248C127.56 12.84 127.904 13.664 127.904 14.72C127.904 15.072 127.864 15.456 127.784 15.872L127.28 18.68C126.976 20.376 126.264 21.576 125.144 22.28C124.04 22.984 122.56 23.336 120.704 23.336C118.848 23.336 117.488 22.984 116.624 22.28C115.984 21.752 115.664 20.96 115.664 19.904C115.664 19.536 115.704 19.128 115.784 18.68L116.288 15.872C116.848 12.704 119.072 11.12 122.96 11.12ZM123.608 16.352C123.64 16.192 123.656 15.992 123.656 15.752C123.656 15.496 123.552 15.216 123.344 14.912C123.136 14.608 122.768 14.456 122.24 14.456C121.728 14.456 121.296 14.632 120.944 14.984C120.592 15.32 120.368 15.776 120.272 16.352L119.96 18.152C119.928 18.312 119.912 18.52 119.912 18.776C119.912 19.016 120.016 19.28 120.224 19.568C120.432 19.856 120.792 20 121.304 20C121.832 20 122.272 19.824 122.624 19.472C122.976 19.104 123.2 18.664 123.296 18.152L123.608 16.352ZM133.315 19.304C133.315 19.72 133.523 19.928 133.939 19.928C134.371 19.928 134.731 19.848 135.019 19.688L134.899 22.4C134.131 23.024 133.267 23.336 132.307 23.336C130.851 23.336 129.907 23 129.475 22.328C129.203 21.896 129.067 21.424 129.067 20.912C129.067 20.4 129.099 19.952 129.163 19.568L131.779 4.784H135.859L133.339 19.016C133.323 19.112 133.315 19.208 133.315 19.304ZM147.291 19.304C147.291 19.72 147.499 19.928 147.915 19.928C148.347 19.928 148.707 19.848 148.995 19.688L148.875 22.4C148.107 23.024 147.243 23.336 146.283 23.336C144.523 23.336 143.547 22.696 143.355 21.416C142.555 22.696 141.379 23.336 139.827 23.336C137.203 23.336 135.891 22.208 135.891 19.952C135.891 19.568 135.931 19.144 136.011 18.68L136.515 15.872C136.771 14.432 137.355 13.288 138.267 12.44C139.195 11.576 140.475 11.144 142.107 11.144C143.115 11.144 143.915 11.36 144.507 11.792L145.731 4.784H149.835L147.315 19.016C147.299 19.112 147.291 19.208 147.291 19.304ZM140.187 18.152C140.155 18.296 140.139 18.496 140.139 18.752C140.139 19.008 140.259 19.264 140.499 19.52C140.739 19.76 141.139 19.88 141.699 19.88C142.275 19.88 142.771 19.656 143.187 19.208L143.907 15.176C143.731 14.776 143.315 14.576 142.659 14.576C141.427 14.576 140.707 15.168 140.499 16.352L140.187 18.152Z" fill="#F4F5F6"/>
<defs>
<linearGradient id="paint0_linear_96_822" x1="1.07324" y1="16" x2="31.9267" y2="16" gradientUnits="userSpaceOnUse">
<stop stop-color="#3772FF"/>
<stop offset="1" stop-color="#9757D7"/>
</linearGradient>
<linearGradient id="paint1_linear_96_822" x1="7.63281" y1="16.5" x2="23.125" y2="16.5" gradientUnits="userSpaceOnUse">
<stop stop-color="#3772FF"/>
<stop offset="1" stop-color="#9757D7"/>
</linearGradient>
</defs>
</svg>
