<svg width="164" height="47" viewBox="0 0 164 47" fill="none" xmlns="http://www.w3.org/2000/svg">
<path d="M14.036 8.62676C15.5724 7.79108 17.4275 7.79108 18.9639 8.62676L28.7341 13.9413C30.3936 14.844 31.4267 16.5818 31.4267 18.471V28.529C31.4267 30.4182 30.3936 32.156 28.7341 33.0587L18.9639 38.3732C17.4275 39.2089 15.5724 39.2089 14.036 38.3732L4.26578 33.0587C2.60628 32.156 1.57324 30.4182 1.57324 28.529V18.471C1.57324 16.5818 2.60628 14.844 4.26578 13.9413L14.036 8.62676Z" stroke="url(#paint0_linear_260_886)"/>
<mask id="mask0_260_886" style="mask-type:alpha" maskUnits="userSpaceOnUse" x="6" y="14" width="20" height="20">
<rect x="6.5" y="14.5" width="19" height="19" fill="#D9D9D9"/>
</mask>
<g mask="url(#mask0_260_886)">
<path d="M16.6334 32.7083C15.5514 32.7083 14.5354 32.4609 13.5854 31.9661C12.6354 31.4713 11.857 30.7819 11.25 29.8979L7.74691 24.752C7.65454 24.6201 7.61826 24.4783 7.63805 24.3265C7.65784 24.1748 7.72052 24.0461 7.82607 23.9406C8.08996 23.6635 8.41652 23.5052 8.80576 23.4656C9.195 23.426 9.54795 23.5184 9.86461 23.7427L12.0417 25.2468V17.6666C12.0417 17.4423 12.1176 17.2543 12.2693 17.1026C12.421 16.9508 12.6091 16.875 12.8334 16.875C13.0577 16.875 13.2457 16.9508 13.3974 17.1026C13.5492 17.2543 13.625 17.4423 13.625 17.6666V24H15.2084V16.0833C15.2084 15.859 15.2842 15.671 15.436 15.5192C15.5877 15.3675 15.7757 15.2916 16 15.2916C16.2243 15.2916 16.4124 15.3675 16.5641 15.5192C16.7158 15.671 16.7917 15.859 16.7917 16.0833V24H18.375V16.875C18.375 16.6507 18.4509 16.4626 18.6026 16.3109C18.7544 16.1592 18.9424 16.0833 19.1667 16.0833C19.391 16.0833 19.579 16.1592 19.7308 16.3109C19.8825 16.4626 19.9584 16.6507 19.9584 16.875V24H21.5417V18.4583C21.5417 18.234 21.6176 18.046 21.7693 17.8942C21.921 17.7425 22.1091 17.6666 22.3334 17.6666C22.5577 17.6666 22.7457 17.7425 22.8974 17.8942C23.0492 18.046 23.125 18.234 23.125 18.4583V26.2166C23.125 28.0243 22.495 29.5581 21.2349 30.8182C19.9749 32.0783 18.441 32.7083 16.6334 32.7083Z" fill="url(#paint1_linear_260_886)"/>
</g>
<path d="M53.15 32V14.5H56.9V32H53.15ZM42.175 32V14.5H45.925V32H42.175ZM45.45 24.575V21.55H53.75V24.575H45.45ZM64.4914 32.3C63.4414 32.3 62.5664 32.1333 61.8664 31.8C61.1831 31.4667 60.6747 31.0167 60.3414 30.45C60.0247 29.8667 59.8664 29.225 59.8664 28.525C59.8664 27.775 60.0497 27.1167 60.4164 26.55C60.7997 25.9667 61.3914 25.5083 62.1914 25.175C62.9914 24.825 63.9997 24.65 65.2164 24.65H68.2664C68.2664 24.0833 68.1914 23.6167 68.0414 23.25C67.9081 22.8833 67.6831 22.6083 67.3664 22.425C67.0497 22.2417 66.6164 22.15 66.0664 22.15C65.4831 22.15 64.9914 22.2667 64.5914 22.5C64.1914 22.7333 63.9414 23.1 63.8414 23.6H60.2414C60.3247 22.7 60.6164 21.9167 61.1164 21.25C61.6331 20.5833 62.3164 20.0583 63.1664 19.675C64.0164 19.2917 64.9914 19.1 66.0914 19.1C67.2914 19.1 68.3331 19.3 69.2164 19.7C70.0997 20.0833 70.7831 20.65 71.2664 21.4C71.7664 22.15 72.0164 23.0833 72.0164 24.2V32H68.8914L68.4414 30.175C68.2581 30.4917 68.0414 30.7833 67.7914 31.05C67.5414 31.3 67.2497 31.525 66.9164 31.725C66.5831 31.9083 66.2164 32.05 65.8164 32.15C65.4164 32.25 64.9747 32.3 64.4914 32.3ZM65.4164 29.45C65.8164 29.45 66.1664 29.3833 66.4664 29.25C66.7664 29.1167 67.0247 28.9333 67.2414 28.7C67.4581 28.4667 67.6331 28.2 67.7664 27.9C67.9164 27.5833 68.0247 27.2417 68.0914 26.875V26.85H65.6664C65.2497 26.85 64.8997 26.9083 64.6164 27.025C64.3497 27.125 64.1497 27.275 64.0164 27.475C63.8831 27.675 63.8164 27.9083 63.8164 28.175C63.8164 28.4583 63.8831 28.7 64.0164 28.9C64.1664 29.0833 64.3581 29.225 64.5914 29.325C64.8414 29.4083 65.1164 29.45 65.4164 29.45ZM75.1328 32V19.4H78.4078L78.7078 21.425C79.0911 20.725 79.6328 20.1667 80.3328 19.75C81.0328 19.3167 81.8828 19.1 82.8828 19.1C83.9328 19.1 84.8161 19.325 85.5328 19.775C86.2495 20.225 86.7911 20.875 87.1578 21.725C87.5411 22.5583 87.7328 23.5833 87.7328 24.8V32H84.0078V25.15C84.0078 24.2333 83.8078 23.525 83.4078 23.025C83.0245 22.5083 82.4078 22.25 81.5578 22.25C81.0578 22.25 80.5995 22.375 80.1828 22.625C79.7828 22.8583 79.4661 23.2 79.2328 23.65C78.9995 24.1 78.8828 24.6417 78.8828 25.275V32H75.1328ZM96.4555 32.3C95.3388 32.3 94.3221 32.0167 93.4055 31.45C92.5055 30.8833 91.7888 30.1083 91.2555 29.125C90.7388 28.125 90.4805 26.9917 90.4805 25.725C90.4805 24.4417 90.7471 23.3083 91.2805 22.325C91.8138 21.325 92.5388 20.5417 93.4555 19.975C94.3888 19.3917 95.4221 19.1 96.5555 19.1C97.4221 19.1 98.1805 19.2583 98.8305 19.575C99.4805 19.875 100.014 20.3167 100.43 20.9V14H104.18V32H100.855L100.43 30.375C100.18 30.725 99.8721 31.05 99.5055 31.35C99.1555 31.6333 98.7305 31.8583 98.2305 32.025C97.7305 32.2083 97.1388 32.3 96.4555 32.3ZM97.4305 29.025C98.0471 29.025 98.5888 28.8833 99.0555 28.6C99.5388 28.3167 99.9055 27.925 100.155 27.425C100.422 26.925 100.555 26.35 100.555 25.7C100.555 25.05 100.422 24.475 100.155 23.975C99.9055 23.475 99.5388 23.0833 99.0555 22.8C98.5888 22.5167 98.0471 22.375 97.4305 22.375C96.8305 22.375 96.2888 22.5167 95.8055 22.8C95.3388 23.0833 94.9721 23.475 94.7055 23.975C94.4388 24.475 94.3055 25.0417 94.3055 25.675C94.3055 26.325 94.4388 26.9083 94.7055 27.425C94.9721 27.925 95.3388 28.3167 95.8055 28.6C96.2888 28.8833 96.8305 29.025 97.4305 29.025ZM118.458 32V14.5H122.208V32H118.458ZM107.483 32V14.5H111.233V32H107.483ZM110.758 24.575V21.55H119.058V24.575H110.758ZM131.549 32.3C130.332 32.3 129.241 32.0167 128.274 31.45C127.307 30.8833 126.541 30.1083 125.974 29.125C125.407 28.125 125.124 26.9917 125.124 25.725C125.124 24.425 125.407 23.2833 125.974 22.3C126.541 21.3 127.307 20.5167 128.274 19.95C129.257 19.3833 130.349 19.1 131.549 19.1C132.782 19.1 133.882 19.3833 134.849 19.95C135.816 20.5167 136.582 21.3 137.149 22.3C137.716 23.2833 137.999 24.4167 137.999 25.7C137.999 26.9833 137.716 28.125 137.149 29.125C136.582 30.1083 135.816 30.8833 134.849 31.45C133.882 32.0167 132.782 32.3 131.549 32.3ZM131.549 29.05C132.049 29.05 132.491 28.925 132.874 28.675C133.274 28.425 133.591 28.05 133.824 27.55C134.057 27.05 134.174 26.4333 134.174 25.7C134.174 24.9667 134.057 24.35 133.824 23.85C133.591 23.35 133.282 22.975 132.899 22.725C132.516 22.475 132.074 22.35 131.574 22.35C131.074 22.35 130.624 22.475 130.224 22.725C129.841 22.975 129.532 23.35 129.299 23.85C129.066 24.35 128.949 24.9667 128.949 25.7C128.949 26.4333 129.066 27.05 129.299 27.55C129.532 28.05 129.841 28.425 130.224 28.675C130.624 28.925 131.066 29.05 131.549 29.05ZM140.88 32V14H144.63V32H140.88ZM153.487 32.3C152.37 32.3 151.353 32.0167 150.437 31.45C149.537 30.8833 148.82 30.1083 148.287 29.125C147.77 28.125 147.512 26.9917 147.512 25.725C147.512 24.4417 147.778 23.3083 148.312 22.325C148.845 21.325 149.57 20.5417 150.487 19.975C151.42 19.3917 152.453 19.1 153.587 19.1C154.453 19.1 155.212 19.2583 155.862 19.575C156.512 19.875 157.045 20.3167 157.462 20.9V14H161.212V32H157.887L157.462 30.375C157.212 30.725 156.903 31.05 156.537 31.35C156.187 31.6333 155.762 31.8583 155.262 32.025C154.762 32.2083 154.17 32.3 153.487 32.3ZM154.462 29.025C155.078 29.025 155.62 28.8833 156.087 28.6C156.57 28.3167 156.937 27.925 157.187 27.425C157.453 26.925 157.587 26.35 157.587 25.7C157.587 25.05 157.453 24.475 157.187 23.975C156.937 23.475 156.57 23.0833 156.087 22.8C155.62 22.5167 155.078 22.375 154.462 22.375C153.862 22.375 153.32 22.5167 152.837 22.8C152.37 23.0833 152.003 23.475 151.737 23.975C151.47 24.475 151.337 25.0417 151.337 25.675C151.337 26.325 151.47 26.9083 151.737 27.425C152.003 27.925 152.37 28.3167 152.837 28.6C153.32 28.8833 153.862 29.025 154.462 29.025Z" fill="#F4F5F6"/>
<defs>
<linearGradient id="paint0_linear_260_886" x1="1.07324" y1="23.5" x2="31.9267" y2="23.5" gradientUnits="userSpaceOnUse">
<stop stop-color="#3772FF"/>
<stop offset="1" stop-color="#9757D7"/>
</linearGradient>
<linearGradient id="paint1_linear_260_886" x1="7.63281" y1="24" x2="23.125" y2="24" gradientUnits="userSpaceOnUse">
<stop stop-color="#3772FF"/>
<stop offset="1" stop-color="#9757D7"/>
</linearGradient>
</defs>
</svg>
