<svg width="163" height="47" viewBox="0 0 163 47" fill="none" xmlns="http://www.w3.org/2000/svg">
<path fill-rule="evenodd" clip-rule="evenodd" d="M13.2971 8.18754C14.9824 7.27082 17.0175 7.27082 18.7028 8.18754L28.473 13.502C30.2935 14.4923 31.4267 16.3987 31.4267 18.471V28.529C31.4267 30.6013 30.2935 32.5077 28.473 33.498L18.7028 38.8125C17.0175 39.7292 14.9824 39.7292 13.2971 38.8125L3.52687 33.498C1.70645 32.5077 0.573242 30.6013 0.573242 28.529L0.573242 18.471C0.573242 16.3987 1.70645 14.4923 3.52686 13.502L13.2971 8.18754Z" fill="#F4F5F6"/>
<path d="M13.536 8.62676C15.0724 7.79108 16.9275 7.79108 18.4639 8.62676L28.2341 13.9413C29.8936 14.844 30.9267 16.5818 30.9267 18.471V28.529C30.9267 30.4182 29.8936 32.156 28.2341 33.0587L18.4639 38.3732C16.9275 39.2089 15.0724 39.2089 13.536 38.3732L3.76578 33.0587C2.10628 32.156 1.07324 30.4182 1.07324 28.529V18.471C1.07324 16.5818 2.10628 14.844 3.76578 13.9413L13.536 8.62676Z" stroke="url(#paint0_linear_70_2178)"/>
<mask id="mask0_70_2178" style="mask-type:alpha" maskUnits="userSpaceOnUse" x="6" y="14" width="19" height="20">
<rect x="6" y="14.5" width="19" height="19" fill="#D9D9D9"/>
</mask>
<g mask="url(#mask0_70_2178)">
<path d="M16.1334 32.7083C15.0514 32.7083 14.0354 32.4609 13.0854 31.9661C12.1354 31.4713 11.357 30.7819 10.75 29.8979L7.24691 24.752C7.15454 24.6201 7.11826 24.4783 7.13805 24.3265C7.15784 24.1748 7.22052 24.0461 7.32607 23.9406C7.58996 23.6635 7.91652 23.5052 8.30576 23.4656C8.695 23.426 9.04795 23.5184 9.36461 23.7427L11.5417 25.2468V17.6666C11.5417 17.4423 11.6176 17.2543 11.7693 17.1026C11.921 16.9508 12.1091 16.875 12.3334 16.875C12.5577 16.875 12.7457 16.9508 12.8974 17.1026C13.0492 17.2543 13.125 17.4423 13.125 17.6666V24H14.7084V16.0833C14.7084 15.859 14.7842 15.671 14.936 15.5192C15.0877 15.3675 15.2757 15.2916 15.5 15.2916C15.7243 15.2916 15.9124 15.3675 16.0641 15.5192C16.2158 15.671 16.2917 15.859 16.2917 16.0833V24H17.875V16.875C17.875 16.6507 17.9509 16.4626 18.1026 16.3109C18.2544 16.1592 18.4424 16.0833 18.6667 16.0833C18.891 16.0833 19.079 16.1592 19.2308 16.3109C19.3825 16.4626 19.4584 16.6507 19.4584 16.875V24H21.0417V18.4583C21.0417 18.234 21.1176 18.046 21.2693 17.8942C21.421 17.7425 21.6091 17.6666 21.8334 17.6666C22.0577 17.6666 22.2457 17.7425 22.3974 17.8942C22.5492 18.046 22.625 18.234 22.625 18.4583V26.2166C22.625 28.0243 21.995 29.5581 20.7349 30.8182C19.4749 32.0783 17.941 32.7083 16.1334 32.7083Z" fill="url(#paint1_linear_70_2178)"/>
</g>
<path d="M52.65 32V14.5H56.4V32H52.65ZM41.675 32V14.5H45.425V32H41.675ZM44.95 24.575V21.55H53.25V24.575H44.95ZM63.9914 32.3C62.9414 32.3 62.0664 32.1333 61.3664 31.8C60.6831 31.4667 60.1747 31.0167 59.8414 30.45C59.5247 29.8667 59.3664 29.225 59.3664 28.525C59.3664 27.775 59.5497 27.1167 59.9164 26.55C60.2997 25.9667 60.8914 25.5083 61.6914 25.175C62.4914 24.825 63.4997 24.65 64.7164 24.65H67.7664C67.7664 24.0833 67.6914 23.6167 67.5414 23.25C67.4081 22.8833 67.1831 22.6083 66.8664 22.425C66.5497 22.2417 66.1164 22.15 65.5664 22.15C64.9831 22.15 64.4914 22.2667 64.0914 22.5C63.6914 22.7333 63.4414 23.1 63.3414 23.6H59.7414C59.8247 22.7 60.1164 21.9167 60.6164 21.25C61.1331 20.5833 61.8164 20.0583 62.6664 19.675C63.5164 19.2917 64.4914 19.1 65.5914 19.1C66.7914 19.1 67.8331 19.3 68.7164 19.7C69.5997 20.0833 70.2831 20.65 70.7664 21.4C71.2664 22.15 71.5164 23.0833 71.5164 24.2V32H68.3914L67.9414 30.175C67.7581 30.4917 67.5414 30.7833 67.2914 31.05C67.0414 31.3 66.7497 31.525 66.4164 31.725C66.0831 31.9083 65.7164 32.05 65.3164 32.15C64.9164 32.25 64.4747 32.3 63.9914 32.3ZM64.9164 29.45C65.3164 29.45 65.6664 29.3833 65.9664 29.25C66.2664 29.1167 66.5247 28.9333 66.7414 28.7C66.9581 28.4667 67.1331 28.2 67.2664 27.9C67.4164 27.5833 67.5247 27.2417 67.5914 26.875V26.85H65.1664C64.7497 26.85 64.3997 26.9083 64.1164 27.025C63.8497 27.125 63.6497 27.275 63.5164 27.475C63.3831 27.675 63.3164 27.9083 63.3164 28.175C63.3164 28.4583 63.3831 28.7 63.5164 28.9C63.6664 29.0833 63.8581 29.225 64.0914 29.325C64.3414 29.4083 64.6164 29.45 64.9164 29.45ZM74.6328 32V19.4H77.9078L78.2078 21.425C78.5911 20.725 79.1328 20.1667 79.8328 19.75C80.5328 19.3167 81.3828 19.1 82.3828 19.1C83.4328 19.1 84.3161 19.325 85.0328 19.775C85.7495 20.225 86.2911 20.875 86.6578 21.725C87.0411 22.5583 87.2328 23.5833 87.2328 24.8V32H83.5078V25.15C83.5078 24.2333 83.3078 23.525 82.9078 23.025C82.5245 22.5083 81.9078 22.25 81.0578 22.25C80.5578 22.25 80.0995 22.375 79.6828 22.625C79.2828 22.8583 78.9661 23.2 78.7328 23.65C78.4995 24.1 78.3828 24.6417 78.3828 25.275V32H74.6328ZM95.9555 32.3C94.8388 32.3 93.8221 32.0167 92.9055 31.45C92.0055 30.8833 91.2888 30.1083 90.7555 29.125C90.2388 28.125 89.9805 26.9917 89.9805 25.725C89.9805 24.4417 90.2471 23.3083 90.7805 22.325C91.3138 21.325 92.0388 20.5417 92.9555 19.975C93.8888 19.3917 94.9221 19.1 96.0555 19.1C96.9221 19.1 97.6805 19.2583 98.3305 19.575C98.9805 19.875 99.5138 20.3167 99.9305 20.9V14H103.68V32H100.355L99.9305 30.375C99.6805 30.725 99.3721 31.05 99.0055 31.35C98.6555 31.6333 98.2305 31.8583 97.7305 32.025C97.2305 32.2083 96.6388 32.3 95.9555 32.3ZM96.9305 29.025C97.5471 29.025 98.0888 28.8833 98.5555 28.6C99.0388 28.3167 99.4055 27.925 99.6555 27.425C99.9221 26.925 100.055 26.35 100.055 25.7C100.055 25.05 99.9221 24.475 99.6555 23.975C99.4055 23.475 99.0388 23.0833 98.5555 22.8C98.0888 22.5167 97.5471 22.375 96.9305 22.375C96.3305 22.375 95.7888 22.5167 95.3055 22.8C94.8388 23.0833 94.4721 23.475 94.2055 23.975C93.9388 24.475 93.8055 25.0417 93.8055 25.675C93.8055 26.325 93.9388 26.9083 94.2055 27.425C94.4721 27.925 94.8388 28.3167 95.3055 28.6C95.7888 28.8833 96.3305 29.025 96.9305 29.025ZM117.958 32V14.5H121.708V32H117.958ZM106.983 32V14.5H110.733V32H106.983ZM110.258 24.575V21.55H118.558V24.575H110.258ZM131.049 32.3C129.832 32.3 128.741 32.0167 127.774 31.45C126.807 30.8833 126.041 30.1083 125.474 29.125C124.907 28.125 124.624 26.9917 124.624 25.725C124.624 24.425 124.907 23.2833 125.474 22.3C126.041 21.3 126.807 20.5167 127.774 19.95C128.757 19.3833 129.849 19.1 131.049 19.1C132.282 19.1 133.382 19.3833 134.349 19.95C135.316 20.5167 136.082 21.3 136.649 22.3C137.216 23.2833 137.499 24.4167 137.499 25.7C137.499 26.9833 137.216 28.125 136.649 29.125C136.082 30.1083 135.316 30.8833 134.349 31.45C133.382 32.0167 132.282 32.3 131.049 32.3ZM131.049 29.05C131.549 29.05 131.991 28.925 132.374 28.675C132.774 28.425 133.091 28.05 133.324 27.55C133.557 27.05 133.674 26.4333 133.674 25.7C133.674 24.9667 133.557 24.35 133.324 23.85C133.091 23.35 132.782 22.975 132.399 22.725C132.016 22.475 131.574 22.35 131.074 22.35C130.574 22.35 130.124 22.475 129.724 22.725C129.341 22.975 129.032 23.35 128.799 23.85C128.566 24.35 128.449 24.9667 128.449 25.7C128.449 26.4333 128.566 27.05 128.799 27.55C129.032 28.05 129.341 28.425 129.724 28.675C130.124 28.925 130.566 29.05 131.049 29.05ZM140.38 32V14H144.13V32H140.38ZM152.987 32.3C151.87 32.3 150.853 32.0167 149.937 31.45C149.037 30.8833 148.32 30.1083 147.787 29.125C147.27 28.125 147.012 26.9917 147.012 25.725C147.012 24.4417 147.278 23.3083 147.812 22.325C148.345 21.325 149.07 20.5417 149.987 19.975C150.92 19.3917 151.953 19.1 153.087 19.1C153.953 19.1 154.712 19.2583 155.362 19.575C156.012 19.875 156.545 20.3167 156.962 20.9V14H160.712V32H157.387L156.962 30.375C156.712 30.725 156.403 31.05 156.037 31.35C155.687 31.6333 155.262 31.8583 154.762 32.025C154.262 32.2083 153.67 32.3 152.987 32.3ZM153.962 29.025C154.578 29.025 155.12 28.8833 155.587 28.6C156.07 28.3167 156.437 27.925 156.687 27.425C156.953 26.925 157.087 26.35 157.087 25.7C157.087 25.05 156.953 24.475 156.687 23.975C156.437 23.475 156.07 23.0833 155.587 22.8C155.12 22.5167 154.578 22.375 153.962 22.375C153.362 22.375 152.82 22.5167 152.337 22.8C151.87 23.0833 151.503 23.475 151.237 23.975C150.97 24.475 150.837 25.0417 150.837 25.675C150.837 26.325 150.97 26.9083 151.237 27.425C151.503 27.925 151.87 28.3167 152.337 28.6C152.82 28.8833 153.362 29.025 153.962 29.025Z" fill="#F4F5F6"/>
<defs>
<linearGradient id="paint0_linear_70_2178" x1="0.573242" y1="23.5" x2="31.4267" y2="23.5" gradientUnits="userSpaceOnUse">
<stop stop-color="#3772FF"/>
<stop offset="1" stop-color="#9757D7"/>
</linearGradient>
<linearGradient id="paint1_linear_70_2178" x1="7.13281" y1="24" x2="22.625" y2="24" gradientUnits="userSpaceOnUse">
<stop stop-color="#3772FF"/>
<stop offset="1" stop-color="#9757D7"/>
</linearGradient>
</defs>
</svg>
